<mxfile host="Electron" agent="Mozilla/5.0 (Windows NT 10.0; Win64; x64) AppleWebKit/537.36 (KHTML, like Gecko) draw.io/25.0.2 Chrome/128.0.6613.186 Electron/32.2.5 Safari/537.36" version="25.0.2">
  <diagram name="Page-1" id="f0McWEutIcfTC0DnxFDM">
    <mxGraphModel dx="2933" dy="1398" grid="1" gridSize="10" guides="1" tooltips="1" connect="1" arrows="1" fold="1" page="1" pageScale="1" pageWidth="600" pageHeight="400" math="0" shadow="0">
      <root>
        <mxCell id="0" />
        <mxCell id="1" parent="0" />
        <mxCell id="Ogf62mbJJq2IxBiwx_k2-1" value="Shape&lt;div&gt;&amp;lt;abstract&amp;gt;&lt;/div&gt;" style="swimlane;fontStyle=1;align=center;verticalAlign=top;childLayout=stackLayout;horizontal=1;startSize=45;horizontalStack=0;resizeParent=1;resizeParentMax=0;resizeLast=0;collapsible=1;marginBottom=0;whiteSpace=wrap;html=1;" vertex="1" parent="1">
          <mxGeometry x="260" y="110" width="160" height="209" as="geometry" />
        </mxCell>
        <mxCell id="Ogf62mbJJq2IxBiwx_k2-2" value="+ x: int&lt;div&gt;+ y: int&lt;/div&gt;&lt;div&gt;+ color: Color&lt;/div&gt;&lt;div&gt;+ isSolid: boolean&lt;/div&gt;&lt;div&gt;+ isDotted: boolean&lt;/div&gt;" style="text;strokeColor=none;fillColor=none;align=left;verticalAlign=top;spacingLeft=4;spacingRight=4;overflow=hidden;rotatable=0;points=[[0,0.5],[1,0.5]];portConstraint=eastwest;whiteSpace=wrap;html=1;" vertex="1" parent="Ogf62mbJJq2IxBiwx_k2-1">
          <mxGeometry y="45" width="160" height="94" as="geometry" />
        </mxCell>
        <mxCell id="Ogf62mbJJq2IxBiwx_k2-3" value="" style="line;strokeWidth=1;fillColor=none;align=left;verticalAlign=middle;spacingTop=-1;spacingLeft=3;spacingRight=3;rotatable=0;labelPosition=right;points=[];portConstraint=eastwest;strokeColor=inherit;" vertex="1" parent="Ogf62mbJJq2IxBiwx_k2-1">
          <mxGeometry y="139" width="160" height="8" as="geometry" />
        </mxCell>
        <mxCell id="Ogf62mbJJq2IxBiwx_k2-4" value="+ draw(Graphics g): void&lt;div&gt;+ Constructors&lt;/div&gt;&lt;div&gt;+ getters and setters&lt;/div&gt;" style="text;strokeColor=none;fillColor=none;align=left;verticalAlign=top;spacingLeft=4;spacingRight=4;overflow=hidden;rotatable=0;points=[[0,0.5],[1,0.5]];portConstraint=eastwest;whiteSpace=wrap;html=1;" vertex="1" parent="Ogf62mbJJq2IxBiwx_k2-1">
          <mxGeometry y="147" width="160" height="62" as="geometry" />
        </mxCell>
        <mxCell id="Ogf62mbJJq2IxBiwx_k2-5" value="Line" style="swimlane;fontStyle=1;align=center;verticalAlign=top;childLayout=stackLayout;horizontal=1;startSize=26;horizontalStack=0;resizeParent=1;resizeParentMax=0;resizeLast=0;collapsible=1;marginBottom=0;whiteSpace=wrap;html=1;" vertex="1" parent="1">
          <mxGeometry x="-50" y="400" width="160" height="124" as="geometry" />
        </mxCell>
        <mxCell id="Ogf62mbJJq2IxBiwx_k2-6" value="+ xEnd: int&lt;div&gt;+ yEnd: Int&lt;/div&gt;" style="text;strokeColor=none;fillColor=none;align=left;verticalAlign=top;spacingLeft=4;spacingRight=4;overflow=hidden;rotatable=0;points=[[0,0.5],[1,0.5]];portConstraint=eastwest;whiteSpace=wrap;html=1;" vertex="1" parent="Ogf62mbJJq2IxBiwx_k2-5">
          <mxGeometry y="26" width="160" height="64" as="geometry" />
        </mxCell>
        <mxCell id="Ogf62mbJJq2IxBiwx_k2-7" value="" style="line;strokeWidth=1;fillColor=none;align=left;verticalAlign=middle;spacingTop=-1;spacingLeft=3;spacingRight=3;rotatable=0;labelPosition=right;points=[];portConstraint=eastwest;strokeColor=inherit;" vertex="1" parent="Ogf62mbJJq2IxBiwx_k2-5">
          <mxGeometry y="90" width="160" height="8" as="geometry" />
        </mxCell>
        <mxCell id="Ogf62mbJJq2IxBiwx_k2-8" value="+ method(type): type" style="text;strokeColor=none;fillColor=none;align=left;verticalAlign=top;spacingLeft=4;spacingRight=4;overflow=hidden;rotatable=0;points=[[0,0.5],[1,0.5]];portConstraint=eastwest;whiteSpace=wrap;html=1;" vertex="1" parent="Ogf62mbJJq2IxBiwx_k2-5">
          <mxGeometry y="98" width="160" height="26" as="geometry" />
        </mxCell>
        <mxCell id="Ogf62mbJJq2IxBiwx_k2-9" value="Rectangle" style="swimlane;fontStyle=1;align=center;verticalAlign=top;childLayout=stackLayout;horizontal=1;startSize=26;horizontalStack=0;resizeParent=1;resizeParentMax=0;resizeLast=0;collapsible=1;marginBottom=0;whiteSpace=wrap;html=1;" vertex="1" parent="1">
          <mxGeometry x="120" y="400" width="160" height="144" as="geometry" />
        </mxCell>
        <mxCell id="Ogf62mbJJq2IxBiwx_k2-10" value="+ width: int&lt;div&gt;+ height: int&lt;/div&gt;" style="text;strokeColor=none;fillColor=none;align=left;verticalAlign=top;spacingLeft=4;spacingRight=4;overflow=hidden;rotatable=0;points=[[0,0.5],[1,0.5]];portConstraint=eastwest;whiteSpace=wrap;html=1;" vertex="1" parent="Ogf62mbJJq2IxBiwx_k2-9">
          <mxGeometry y="26" width="160" height="84" as="geometry" />
        </mxCell>
        <mxCell id="Ogf62mbJJq2IxBiwx_k2-11" value="" style="line;strokeWidth=1;fillColor=none;align=left;verticalAlign=middle;spacingTop=-1;spacingLeft=3;spacingRight=3;rotatable=0;labelPosition=right;points=[];portConstraint=eastwest;strokeColor=inherit;" vertex="1" parent="Ogf62mbJJq2IxBiwx_k2-9">
          <mxGeometry y="110" width="160" height="8" as="geometry" />
        </mxCell>
        <mxCell id="Ogf62mbJJq2IxBiwx_k2-12" value="+ method(type): type" style="text;strokeColor=none;fillColor=none;align=left;verticalAlign=top;spacingLeft=4;spacingRight=4;overflow=hidden;rotatable=0;points=[[0,0.5],[1,0.5]];portConstraint=eastwest;whiteSpace=wrap;html=1;" vertex="1" parent="Ogf62mbJJq2IxBiwx_k2-9">
          <mxGeometry y="118" width="160" height="26" as="geometry" />
        </mxCell>
        <mxCell id="Ogf62mbJJq2IxBiwx_k2-13" value="Oval" style="swimlane;fontStyle=1;align=center;verticalAlign=top;childLayout=stackLayout;horizontal=1;startSize=26;horizontalStack=0;resizeParent=1;resizeParentMax=0;resizeLast=0;collapsible=1;marginBottom=0;whiteSpace=wrap;html=1;" vertex="1" parent="1">
          <mxGeometry x="290" y="400" width="160" height="114" as="geometry" />
        </mxCell>
        <mxCell id="Ogf62mbJJq2IxBiwx_k2-14" value="+ width: int&lt;div&gt;+ height: int&lt;/div&gt;" style="text;strokeColor=none;fillColor=none;align=left;verticalAlign=top;spacingLeft=4;spacingRight=4;overflow=hidden;rotatable=0;points=[[0,0.5],[1,0.5]];portConstraint=eastwest;whiteSpace=wrap;html=1;" vertex="1" parent="Ogf62mbJJq2IxBiwx_k2-13">
          <mxGeometry y="26" width="160" height="54" as="geometry" />
        </mxCell>
        <mxCell id="Ogf62mbJJq2IxBiwx_k2-15" value="" style="line;strokeWidth=1;fillColor=none;align=left;verticalAlign=middle;spacingTop=-1;spacingLeft=3;spacingRight=3;rotatable=0;labelPosition=right;points=[];portConstraint=eastwest;strokeColor=inherit;" vertex="1" parent="Ogf62mbJJq2IxBiwx_k2-13">
          <mxGeometry y="80" width="160" height="8" as="geometry" />
        </mxCell>
        <mxCell id="Ogf62mbJJq2IxBiwx_k2-16" value="+ method(type): type" style="text;strokeColor=none;fillColor=none;align=left;verticalAlign=top;spacingLeft=4;spacingRight=4;overflow=hidden;rotatable=0;points=[[0,0.5],[1,0.5]];portConstraint=eastwest;whiteSpace=wrap;html=1;" vertex="1" parent="Ogf62mbJJq2IxBiwx_k2-13">
          <mxGeometry y="88" width="160" height="26" as="geometry" />
        </mxCell>
        <mxCell id="Ogf62mbJJq2IxBiwx_k2-17" value="Eraser" style="swimlane;fontStyle=1;align=center;verticalAlign=top;childLayout=stackLayout;horizontal=1;startSize=26;horizontalStack=0;resizeParent=1;resizeParentMax=0;resizeLast=0;collapsible=1;marginBottom=0;whiteSpace=wrap;html=1;" vertex="1" parent="1">
          <mxGeometry x="480" y="400" width="160" height="114" as="geometry" />
        </mxCell>
        <mxCell id="Ogf62mbJJq2IxBiwx_k2-18" value="+ width: int&lt;div&gt;+ height: int&lt;/div&gt;" style="text;strokeColor=none;fillColor=none;align=left;verticalAlign=top;spacingLeft=4;spacingRight=4;overflow=hidden;rotatable=0;points=[[0,0.5],[1,0.5]];portConstraint=eastwest;whiteSpace=wrap;html=1;" vertex="1" parent="Ogf62mbJJq2IxBiwx_k2-17">
          <mxGeometry y="26" width="160" height="54" as="geometry" />
        </mxCell>
        <mxCell id="Ogf62mbJJq2IxBiwx_k2-19" value="" style="line;strokeWidth=1;fillColor=none;align=left;verticalAlign=middle;spacingTop=-1;spacingLeft=3;spacingRight=3;rotatable=0;labelPosition=right;points=[];portConstraint=eastwest;strokeColor=inherit;" vertex="1" parent="Ogf62mbJJq2IxBiwx_k2-17">
          <mxGeometry y="80" width="160" height="8" as="geometry" />
        </mxCell>
        <mxCell id="Ogf62mbJJq2IxBiwx_k2-20" value="+ method(type): type" style="text;strokeColor=none;fillColor=none;align=left;verticalAlign=top;spacingLeft=4;spacingRight=4;overflow=hidden;rotatable=0;points=[[0,0.5],[1,0.5]];portConstraint=eastwest;whiteSpace=wrap;html=1;" vertex="1" parent="Ogf62mbJJq2IxBiwx_k2-17">
          <mxGeometry y="88" width="160" height="26" as="geometry" />
        </mxCell>
        <mxCell id="Ogf62mbJJq2IxBiwx_k2-21" value="Pencil" style="swimlane;fontStyle=1;align=center;verticalAlign=top;childLayout=stackLayout;horizontal=1;startSize=26;horizontalStack=0;resizeParent=1;resizeParentMax=0;resizeLast=0;collapsible=1;marginBottom=0;whiteSpace=wrap;html=1;" vertex="1" parent="1">
          <mxGeometry x="660" y="400" width="160" height="114" as="geometry" />
        </mxCell>
        <mxCell id="Ogf62mbJJq2IxBiwx_k2-22" value="+ width: int&lt;div&gt;+ height: int&lt;/div&gt;" style="text;strokeColor=none;fillColor=none;align=left;verticalAlign=top;spacingLeft=4;spacingRight=4;overflow=hidden;rotatable=0;points=[[0,0.5],[1,0.5]];portConstraint=eastwest;whiteSpace=wrap;html=1;" vertex="1" parent="Ogf62mbJJq2IxBiwx_k2-21">
          <mxGeometry y="26" width="160" height="54" as="geometry" />
        </mxCell>
        <mxCell id="Ogf62mbJJq2IxBiwx_k2-23" value="" style="line;strokeWidth=1;fillColor=none;align=left;verticalAlign=middle;spacingTop=-1;spacingLeft=3;spacingRight=3;rotatable=0;labelPosition=right;points=[];portConstraint=eastwest;strokeColor=inherit;" vertex="1" parent="Ogf62mbJJq2IxBiwx_k2-21">
          <mxGeometry y="80" width="160" height="8" as="geometry" />
        </mxCell>
        <mxCell id="Ogf62mbJJq2IxBiwx_k2-24" value="+ method(type): type" style="text;strokeColor=none;fillColor=none;align=left;verticalAlign=top;spacingLeft=4;spacingRight=4;overflow=hidden;rotatable=0;points=[[0,0.5],[1,0.5]];portConstraint=eastwest;whiteSpace=wrap;html=1;" vertex="1" parent="Ogf62mbJJq2IxBiwx_k2-21">
          <mxGeometry y="88" width="160" height="26" as="geometry" />
        </mxCell>
        <mxCell id="Ogf62mbJJq2IxBiwx_k2-25" value="Extends" style="endArrow=block;endSize=16;endFill=0;html=1;rounded=0;" edge="1" parent="1" source="Ogf62mbJJq2IxBiwx_k2-5" target="Ogf62mbJJq2IxBiwx_k2-1">
          <mxGeometry width="160" relative="1" as="geometry">
            <mxPoint x="100" y="330" as="sourcePoint" />
            <mxPoint x="260" y="330" as="targetPoint" />
          </mxGeometry>
        </mxCell>
        <mxCell id="Ogf62mbJJq2IxBiwx_k2-26" value="Extends" style="endArrow=block;endSize=16;endFill=0;html=1;rounded=0;" edge="1" parent="1" source="Ogf62mbJJq2IxBiwx_k2-9" target="Ogf62mbJJq2IxBiwx_k2-1">
          <mxGeometry width="160" relative="1" as="geometry">
            <mxPoint x="268" y="410" as="sourcePoint" />
            <mxPoint x="304" y="329" as="targetPoint" />
          </mxGeometry>
        </mxCell>
        <mxCell id="Ogf62mbJJq2IxBiwx_k2-27" value="Extends" style="endArrow=block;endSize=16;endFill=0;html=1;rounded=0;" edge="1" parent="1" source="Ogf62mbJJq2IxBiwx_k2-13" target="Ogf62mbJJq2IxBiwx_k2-1">
          <mxGeometry width="160" relative="1" as="geometry">
            <mxPoint x="393" y="410" as="sourcePoint" />
            <mxPoint x="374" y="329" as="targetPoint" />
          </mxGeometry>
        </mxCell>
        <mxCell id="Ogf62mbJJq2IxBiwx_k2-28" value="Extends" style="endArrow=block;endSize=16;endFill=0;html=1;rounded=0;" edge="1" parent="1" source="Ogf62mbJJq2IxBiwx_k2-17" target="Ogf62mbJJq2IxBiwx_k2-1">
          <mxGeometry width="160" relative="1" as="geometry">
            <mxPoint x="526" y="358" as="sourcePoint" />
            <mxPoint x="430" y="257" as="targetPoint" />
          </mxGeometry>
        </mxCell>
        <mxCell id="Ogf62mbJJq2IxBiwx_k2-29" value="Extends" style="endArrow=block;endSize=16;endFill=0;html=1;rounded=0;" edge="1" parent="1" source="Ogf62mbJJq2IxBiwx_k2-21" target="Ogf62mbJJq2IxBiwx_k2-1">
          <mxGeometry width="160" relative="1" as="geometry">
            <mxPoint x="690" y="421" as="sourcePoint" />
            <mxPoint x="430" y="271" as="targetPoint" />
          </mxGeometry>
        </mxCell>
        <mxCell id="Ogf62mbJJq2IxBiwx_k2-34" value="Shape&lt;div&gt;&amp;lt;abstract&amp;gt;&lt;/div&gt;" style="swimlane;fontStyle=1;align=center;verticalAlign=top;childLayout=stackLayout;horizontal=1;startSize=45;horizontalStack=0;resizeParent=1;resizeParentMax=0;resizeLast=0;collapsible=1;marginBottom=0;whiteSpace=wrap;html=1;" vertex="1" parent="1">
          <mxGeometry x="1710" y="30" width="160" height="209" as="geometry" />
        </mxCell>
        <mxCell id="Ogf62mbJJq2IxBiwx_k2-35" value="+ x: int&lt;div&gt;+ y: int&lt;/div&gt;&lt;div&gt;+ color: Color&lt;/div&gt;&lt;div&gt;+ isSolid: boolean&lt;/div&gt;&lt;div&gt;+ isDotted: boolean&lt;/div&gt;" style="text;strokeColor=none;fillColor=none;align=left;verticalAlign=top;spacingLeft=4;spacingRight=4;overflow=hidden;rotatable=0;points=[[0,0.5],[1,0.5]];portConstraint=eastwest;whiteSpace=wrap;html=1;" vertex="1" parent="Ogf62mbJJq2IxBiwx_k2-34">
          <mxGeometry y="45" width="160" height="94" as="geometry" />
        </mxCell>
        <mxCell id="Ogf62mbJJq2IxBiwx_k2-36" value="" style="line;strokeWidth=1;fillColor=none;align=left;verticalAlign=middle;spacingTop=-1;spacingLeft=3;spacingRight=3;rotatable=0;labelPosition=right;points=[];portConstraint=eastwest;strokeColor=inherit;" vertex="1" parent="Ogf62mbJJq2IxBiwx_k2-34">
          <mxGeometry y="139" width="160" height="8" as="geometry" />
        </mxCell>
        <mxCell id="Ogf62mbJJq2IxBiwx_k2-37" value="+ draw(Graphics g): void&lt;div&gt;+ Constructors&lt;/div&gt;&lt;div&gt;+ getters and setters&lt;/div&gt;" style="text;strokeColor=none;fillColor=none;align=left;verticalAlign=top;spacingLeft=4;spacingRight=4;overflow=hidden;rotatable=0;points=[[0,0.5],[1,0.5]];portConstraint=eastwest;whiteSpace=wrap;html=1;" vertex="1" parent="Ogf62mbJJq2IxBiwx_k2-34">
          <mxGeometry y="147" width="160" height="62" as="geometry" />
        </mxCell>
        <mxCell id="Ogf62mbJJq2IxBiwx_k2-38" value="Line" style="swimlane;fontStyle=1;align=center;verticalAlign=top;childLayout=stackLayout;horizontal=1;startSize=26;horizontalStack=0;resizeParent=1;resizeParentMax=0;resizeLast=0;collapsible=1;marginBottom=0;whiteSpace=wrap;html=1;" vertex="1" parent="1">
          <mxGeometry x="1400" y="320" width="160" height="124" as="geometry" />
        </mxCell>
        <mxCell id="Ogf62mbJJq2IxBiwx_k2-39" value="+ xEnd: int&lt;div&gt;+ yEnd: Int&lt;/div&gt;" style="text;strokeColor=none;fillColor=none;align=left;verticalAlign=top;spacingLeft=4;spacingRight=4;overflow=hidden;rotatable=0;points=[[0,0.5],[1,0.5]];portConstraint=eastwest;whiteSpace=wrap;html=1;" vertex="1" parent="Ogf62mbJJq2IxBiwx_k2-38">
          <mxGeometry y="26" width="160" height="64" as="geometry" />
        </mxCell>
        <mxCell id="Ogf62mbJJq2IxBiwx_k2-40" value="" style="line;strokeWidth=1;fillColor=none;align=left;verticalAlign=middle;spacingTop=-1;spacingLeft=3;spacingRight=3;rotatable=0;labelPosition=right;points=[];portConstraint=eastwest;strokeColor=inherit;" vertex="1" parent="Ogf62mbJJq2IxBiwx_k2-38">
          <mxGeometry y="90" width="160" height="8" as="geometry" />
        </mxCell>
        <mxCell id="Ogf62mbJJq2IxBiwx_k2-41" value="+ method(type): type" style="text;strokeColor=none;fillColor=none;align=left;verticalAlign=top;spacingLeft=4;spacingRight=4;overflow=hidden;rotatable=0;points=[[0,0.5],[1,0.5]];portConstraint=eastwest;whiteSpace=wrap;html=1;" vertex="1" parent="Ogf62mbJJq2IxBiwx_k2-38">
          <mxGeometry y="98" width="160" height="26" as="geometry" />
        </mxCell>
        <mxCell id="Ogf62mbJJq2IxBiwx_k2-42" value="Rectangle" style="swimlane;fontStyle=1;align=center;verticalAlign=top;childLayout=stackLayout;horizontal=1;startSize=26;horizontalStack=0;resizeParent=1;resizeParentMax=0;resizeLast=0;collapsible=1;marginBottom=0;whiteSpace=wrap;html=1;" vertex="1" parent="1">
          <mxGeometry x="1570" y="320" width="160" height="144" as="geometry" />
        </mxCell>
        <mxCell id="Ogf62mbJJq2IxBiwx_k2-43" value="+ width: int&lt;div&gt;+ height: int&lt;/div&gt;" style="text;strokeColor=none;fillColor=none;align=left;verticalAlign=top;spacingLeft=4;spacingRight=4;overflow=hidden;rotatable=0;points=[[0,0.5],[1,0.5]];portConstraint=eastwest;whiteSpace=wrap;html=1;" vertex="1" parent="Ogf62mbJJq2IxBiwx_k2-42">
          <mxGeometry y="26" width="160" height="84" as="geometry" />
        </mxCell>
        <mxCell id="Ogf62mbJJq2IxBiwx_k2-44" value="" style="line;strokeWidth=1;fillColor=none;align=left;verticalAlign=middle;spacingTop=-1;spacingLeft=3;spacingRight=3;rotatable=0;labelPosition=right;points=[];portConstraint=eastwest;strokeColor=inherit;" vertex="1" parent="Ogf62mbJJq2IxBiwx_k2-42">
          <mxGeometry y="110" width="160" height="8" as="geometry" />
        </mxCell>
        <mxCell id="Ogf62mbJJq2IxBiwx_k2-45" value="+ method(type): type" style="text;strokeColor=none;fillColor=none;align=left;verticalAlign=top;spacingLeft=4;spacingRight=4;overflow=hidden;rotatable=0;points=[[0,0.5],[1,0.5]];portConstraint=eastwest;whiteSpace=wrap;html=1;" vertex="1" parent="Ogf62mbJJq2IxBiwx_k2-42">
          <mxGeometry y="118" width="160" height="26" as="geometry" />
        </mxCell>
        <mxCell id="Ogf62mbJJq2IxBiwx_k2-46" value="Oval" style="swimlane;fontStyle=1;align=center;verticalAlign=top;childLayout=stackLayout;horizontal=1;startSize=26;horizontalStack=0;resizeParent=1;resizeParentMax=0;resizeLast=0;collapsible=1;marginBottom=0;whiteSpace=wrap;html=1;" vertex="1" parent="1">
          <mxGeometry x="1740" y="320" width="160" height="114" as="geometry" />
        </mxCell>
        <mxCell id="Ogf62mbJJq2IxBiwx_k2-47" value="+ width: int&lt;div&gt;+ height: int&lt;/div&gt;" style="text;strokeColor=none;fillColor=none;align=left;verticalAlign=top;spacingLeft=4;spacingRight=4;overflow=hidden;rotatable=0;points=[[0,0.5],[1,0.5]];portConstraint=eastwest;whiteSpace=wrap;html=1;" vertex="1" parent="Ogf62mbJJq2IxBiwx_k2-46">
          <mxGeometry y="26" width="160" height="54" as="geometry" />
        </mxCell>
        <mxCell id="Ogf62mbJJq2IxBiwx_k2-48" value="" style="line;strokeWidth=1;fillColor=none;align=left;verticalAlign=middle;spacingTop=-1;spacingLeft=3;spacingRight=3;rotatable=0;labelPosition=right;points=[];portConstraint=eastwest;strokeColor=inherit;" vertex="1" parent="Ogf62mbJJq2IxBiwx_k2-46">
          <mxGeometry y="80" width="160" height="8" as="geometry" />
        </mxCell>
        <mxCell id="Ogf62mbJJq2IxBiwx_k2-49" value="+ method(type): type" style="text;strokeColor=none;fillColor=none;align=left;verticalAlign=top;spacingLeft=4;spacingRight=4;overflow=hidden;rotatable=0;points=[[0,0.5],[1,0.5]];portConstraint=eastwest;whiteSpace=wrap;html=1;" vertex="1" parent="Ogf62mbJJq2IxBiwx_k2-46">
          <mxGeometry y="88" width="160" height="26" as="geometry" />
        </mxCell>
        <mxCell id="Ogf62mbJJq2IxBiwx_k2-50" value="Eraser" style="swimlane;fontStyle=1;align=center;verticalAlign=top;childLayout=stackLayout;horizontal=1;startSize=26;horizontalStack=0;resizeParent=1;resizeParentMax=0;resizeLast=0;collapsible=1;marginBottom=0;whiteSpace=wrap;html=1;" vertex="1" parent="1">
          <mxGeometry x="1930" y="320" width="160" height="114" as="geometry" />
        </mxCell>
        <mxCell id="Ogf62mbJJq2IxBiwx_k2-51" value="+ width: int&lt;div&gt;+ height: int&lt;/div&gt;" style="text;strokeColor=none;fillColor=none;align=left;verticalAlign=top;spacingLeft=4;spacingRight=4;overflow=hidden;rotatable=0;points=[[0,0.5],[1,0.5]];portConstraint=eastwest;whiteSpace=wrap;html=1;" vertex="1" parent="Ogf62mbJJq2IxBiwx_k2-50">
          <mxGeometry y="26" width="160" height="54" as="geometry" />
        </mxCell>
        <mxCell id="Ogf62mbJJq2IxBiwx_k2-52" value="" style="line;strokeWidth=1;fillColor=none;align=left;verticalAlign=middle;spacingTop=-1;spacingLeft=3;spacingRight=3;rotatable=0;labelPosition=right;points=[];portConstraint=eastwest;strokeColor=inherit;" vertex="1" parent="Ogf62mbJJq2IxBiwx_k2-50">
          <mxGeometry y="80" width="160" height="8" as="geometry" />
        </mxCell>
        <mxCell id="Ogf62mbJJq2IxBiwx_k2-53" value="+ method(type): type" style="text;strokeColor=none;fillColor=none;align=left;verticalAlign=top;spacingLeft=4;spacingRight=4;overflow=hidden;rotatable=0;points=[[0,0.5],[1,0.5]];portConstraint=eastwest;whiteSpace=wrap;html=1;" vertex="1" parent="Ogf62mbJJq2IxBiwx_k2-50">
          <mxGeometry y="88" width="160" height="26" as="geometry" />
        </mxCell>
        <mxCell id="Ogf62mbJJq2IxBiwx_k2-54" value="Pencil" style="swimlane;fontStyle=1;align=center;verticalAlign=top;childLayout=stackLayout;horizontal=1;startSize=26;horizontalStack=0;resizeParent=1;resizeParentMax=0;resizeLast=0;collapsible=1;marginBottom=0;whiteSpace=wrap;html=1;" vertex="1" parent="1">
          <mxGeometry x="2110" y="320" width="160" height="114" as="geometry" />
        </mxCell>
        <mxCell id="Ogf62mbJJq2IxBiwx_k2-55" value="+ width: int&lt;div&gt;+ height: int&lt;/div&gt;" style="text;strokeColor=none;fillColor=none;align=left;verticalAlign=top;spacingLeft=4;spacingRight=4;overflow=hidden;rotatable=0;points=[[0,0.5],[1,0.5]];portConstraint=eastwest;whiteSpace=wrap;html=1;" vertex="1" parent="Ogf62mbJJq2IxBiwx_k2-54">
          <mxGeometry y="26" width="160" height="54" as="geometry" />
        </mxCell>
        <mxCell id="Ogf62mbJJq2IxBiwx_k2-56" value="" style="line;strokeWidth=1;fillColor=none;align=left;verticalAlign=middle;spacingTop=-1;spacingLeft=3;spacingRight=3;rotatable=0;labelPosition=right;points=[];portConstraint=eastwest;strokeColor=inherit;" vertex="1" parent="Ogf62mbJJq2IxBiwx_k2-54">
          <mxGeometry y="80" width="160" height="8" as="geometry" />
        </mxCell>
        <mxCell id="Ogf62mbJJq2IxBiwx_k2-57" value="+ method(type): type" style="text;strokeColor=none;fillColor=none;align=left;verticalAlign=top;spacingLeft=4;spacingRight=4;overflow=hidden;rotatable=0;points=[[0,0.5],[1,0.5]];portConstraint=eastwest;whiteSpace=wrap;html=1;" vertex="1" parent="Ogf62mbJJq2IxBiwx_k2-54">
          <mxGeometry y="88" width="160" height="26" as="geometry" />
        </mxCell>
        <mxCell id="Ogf62mbJJq2IxBiwx_k2-58" value="Extends" style="endArrow=block;endSize=16;endFill=0;html=1;rounded=0;" edge="1" parent="1" source="Ogf62mbJJq2IxBiwx_k2-38" target="Ogf62mbJJq2IxBiwx_k2-34">
          <mxGeometry width="160" relative="1" as="geometry">
            <mxPoint x="1550" y="250" as="sourcePoint" />
            <mxPoint x="1710" y="250" as="targetPoint" />
          </mxGeometry>
        </mxCell>
        <mxCell id="Ogf62mbJJq2IxBiwx_k2-59" value="Extends" style="endArrow=block;endSize=16;endFill=0;html=1;rounded=0;" edge="1" parent="1" source="Ogf62mbJJq2IxBiwx_k2-42" target="Ogf62mbJJq2IxBiwx_k2-34">
          <mxGeometry width="160" relative="1" as="geometry">
            <mxPoint x="1718" y="330" as="sourcePoint" />
            <mxPoint x="1754" y="249" as="targetPoint" />
          </mxGeometry>
        </mxCell>
        <mxCell id="Ogf62mbJJq2IxBiwx_k2-60" value="Extends" style="endArrow=block;endSize=16;endFill=0;html=1;rounded=0;" edge="1" parent="1" source="Ogf62mbJJq2IxBiwx_k2-46" target="Ogf62mbJJq2IxBiwx_k2-34">
          <mxGeometry width="160" relative="1" as="geometry">
            <mxPoint x="1843" y="330" as="sourcePoint" />
            <mxPoint x="1824" y="249" as="targetPoint" />
          </mxGeometry>
        </mxCell>
        <mxCell id="Ogf62mbJJq2IxBiwx_k2-61" value="Extends" style="endArrow=block;endSize=16;endFill=0;html=1;rounded=0;" edge="1" parent="1" source="Ogf62mbJJq2IxBiwx_k2-50" target="Ogf62mbJJq2IxBiwx_k2-34">
          <mxGeometry width="160" relative="1" as="geometry">
            <mxPoint x="1976" y="278" as="sourcePoint" />
            <mxPoint x="1880" y="177" as="targetPoint" />
          </mxGeometry>
        </mxCell>
        <mxCell id="Ogf62mbJJq2IxBiwx_k2-62" value="Extends" style="endArrow=block;endSize=16;endFill=0;html=1;rounded=0;" edge="1" parent="1" source="Ogf62mbJJq2IxBiwx_k2-54" target="Ogf62mbJJq2IxBiwx_k2-34">
          <mxGeometry width="160" relative="1" as="geometry">
            <mxPoint x="2140" y="341" as="sourcePoint" />
            <mxPoint x="1880" y="191" as="targetPoint" />
          </mxGeometry>
        </mxCell>
      </root>
    </mxGraphModel>
  </diagram>
</mxfile>
